<?xml version="1.0" encoding="UTF-8" standalone="no"?>
<!DOCTYPE svg PUBLIC "-//W3C//DTD SVG 1.1//EN" "http://www.w3.org/Graphics/SVG/1.1/DTD/svg11.dtd">
<svg width="100%" height="100%" viewBox="0 0 723 135" version="1.1" xmlns="http://www.w3.org/2000/svg" xmlns:xlink="http://www.w3.org/1999/xlink" xml:space="preserve" xmlns:serif="http://www.serif.com/" style="fill-rule:evenodd;clip-rule:evenodd;stroke-linejoin:bevel;stroke-miterlimit:10;">
    <g transform="matrix(1,0,0,1,-3697.03,-5033.22)">
        <g transform="matrix(0.528122,0,0,0.528122,1785.63,2383.14)">
            <g transform="matrix(4.32037,0,0,4.32037,-13218.4,-15039.7)">
                <path d="M3995.26,4672.63C3995.43,4672.81 3995.51,4673.03 3995.51,4673.27L3995.51,4684.65C3995.51,4685.01 3995.38,4685.28 3995.11,4685.46C3993.72,4686.4 3992.2,4687.13 3990.55,4687.66C3988.9,4688.19 3987.23,4688.45 3985.54,4688.45C3982.43,4688.45 3979.64,4687.75 3977.18,4686.35C3974.71,4684.94 3972.78,4683 3971.38,4680.52C3969.97,4678.04 3969.27,4675.25 3969.27,4672.13C3969.27,4669.02 3969.97,4666.23 3971.38,4663.75C3972.78,4661.27 3974.71,4659.33 3977.18,4657.92C3979.64,4656.52 3982.43,4655.81 3985.54,4655.81C3987.23,4655.81 3988.84,4656.02 3990.37,4656.43C3991.9,4656.83 3993.26,4657.44 3994.47,4658.26C3994.74,4658.44 3994.88,4658.7 3994.88,4659.03C3994.88,4659.3 3994.78,4659.52 3994.59,4659.69C3994.39,4659.86 3994.2,4659.94 3994.02,4659.94C3993.87,4659.94 3993.67,4659.88 3993.43,4659.76C3990.89,4658.34 3988.26,4657.63 3985.54,4657.63C3982.76,4657.63 3980.28,4658.25 3978.11,4659.48C3975.93,4660.72 3974.23,4662.45 3973.01,4664.65C3971.78,4666.86 3971.17,4669.35 3971.17,4672.13C3971.17,4674.91 3971.78,4677.41 3973.01,4679.61C3974.23,4681.82 3975.93,4683.54 3978.11,4684.78C3980.28,4686.02 3982.76,4686.64 3985.54,4686.64C3986.93,4686.64 3988.34,4686.42 3989.78,4685.98C3991.22,4685.54 3992.52,4684.96 3993.7,4684.24L3993.7,4674.17L3985.54,4674.17C3985.3,4674.17 3985.09,4674.08 3984.91,4673.9C3984.72,4673.72 3984.64,4673.51 3984.64,4673.27C3984.64,4672.99 3984.72,4672.78 3984.91,4672.61C3985.09,4672.44 3985.3,4672.36 3985.54,4672.36L3994.61,4672.36C3994.88,4672.36 3995.1,4672.45 3995.26,4672.63Z" style="fill:white;fill-rule:nonzero;"/>
                <path d="M4021.63,4686.46C4021.81,4686.64 4021.9,4686.85 4021.9,4687.09C4021.9,4687.36 4021.81,4687.58 4021.63,4687.75C4021.45,4687.92 4021.23,4688 4020.99,4688L4003.9,4688C4003.66,4688 4003.45,4687.91 4003.27,4687.73C4003.09,4687.55 4002.99,4687.34 4002.99,4687.09L4002.99,4657.17C4002.99,4656.93 4003.09,4656.72 4003.27,4656.54C4003.45,4656.36 4003.66,4656.27 4003.9,4656.27L4020.99,4656.27C4021.23,4656.27 4021.45,4656.36 4021.63,4656.54C4021.81,4656.72 4021.9,4656.93 4021.9,4657.17C4021.9,4657.44 4021.81,4657.66 4021.63,4657.83C4021.45,4658 4021.23,4658.08 4020.99,4658.08L4004.9,4658.08L4004.9,4670.73L4018.95,4670.73C4019.19,4670.73 4019.41,4670.82 4019.59,4671C4019.77,4671.18 4019.86,4671.39 4019.86,4671.64C4019.86,4671.91 4019.77,4672.13 4019.59,4672.29C4019.41,4672.46 4019.19,4672.54 4018.95,4672.54L4004.9,4672.54L4004.9,4686.19L4020.99,4686.19C4021.23,4686.19 4021.45,4686.28 4021.63,4686.46Z" style="fill:white;fill-rule:nonzero;"/>
                <path d="M4054.79,4680.61C4053.5,4683.09 4051.71,4685.02 4049.42,4686.39C4047.12,4687.77 4044.51,4688.45 4041.57,4688.45C4038.64,4688.45 4036.03,4687.77 4033.73,4686.39C4031.43,4685.02 4029.64,4683.09 4028.36,4680.61C4027.07,4678.13 4026.43,4675.31 4026.43,4672.13C4026.43,4668.96 4027.07,4666.13 4028.36,4663.66C4029.64,4661.18 4031.43,4659.25 4033.73,4657.88C4036.03,4656.5 4038.64,4655.81 4041.57,4655.81C4044.51,4655.81 4047.12,4656.5 4049.42,4657.88C4051.71,4659.25 4053.5,4661.18 4054.79,4663.66C4056.07,4666.13 4056.72,4668.96 4056.72,4672.13C4056.72,4675.31 4056.07,4678.13 4054.79,4680.61ZM4053.13,4664.56C4052.01,4662.36 4050.45,4660.65 4048.44,4659.44C4046.43,4658.23 4044.14,4657.63 4041.57,4657.63C4039,4657.63 4036.72,4658.23 4034.7,4659.44C4032.7,4660.65 4031.13,4662.36 4030.01,4664.56C4028.89,4666.77 4028.34,4669.29 4028.34,4672.13C4028.34,4674.97 4028.89,4677.5 4030.01,4679.7C4031.13,4681.91 4032.7,4683.62 4034.7,4684.83C4036.72,4686.04 4039,4686.64 4041.57,4686.64C4044.14,4686.64 4046.43,4686.04 4048.44,4684.83C4050.45,4683.62 4052.01,4681.91 4053.13,4679.7C4054.25,4677.5 4054.81,4674.97 4054.81,4672.13C4054.81,4669.29 4054.25,4666.77 4053.13,4664.56Z" style="fill:white;fill-rule:nonzero;"/>
                <path d="M4087.41,4659.62C4087.41,4659.86 4087.35,4660.06 4087.22,4660.21C4087.04,4660.45 4086.82,4660.57 4086.54,4660.57C4086.42,4660.57 4086.24,4660.51 4086,4660.39C4083.19,4658.49 4080.21,4657.54 4077.07,4657.54C4074.53,4657.54 4072.2,4658.16 4070.07,4659.42C4067.93,4660.67 4066.25,4662.41 4065.01,4664.63C4063.77,4666.85 4063.15,4669.35 4063.15,4672.13C4063.15,4674.91 4063.77,4677.41 4065.01,4679.64C4066.25,4681.86 4067.93,4683.6 4070.07,4684.85C4072.2,4686.1 4074.53,4686.73 4077.07,4686.73C4080.24,4686.73 4083.2,4685.79 4085.95,4683.92C4086.11,4683.8 4086.29,4683.74 4086.5,4683.74C4086.8,4683.74 4087.04,4683.86 4087.22,4684.1C4087.35,4684.25 4087.41,4684.43 4087.41,4684.65C4087.41,4684.95 4087.28,4685.19 4087.04,4685.37C4085.86,4686.22 4084.35,4686.94 4082.49,4687.55C4080.63,4688.15 4078.82,4688.45 4077.07,4688.45C4074.2,4688.45 4071.55,4687.74 4069.14,4686.32C4066.72,4684.9 4064.8,4682.94 4063.38,4680.45C4061.96,4677.96 4061.25,4675.19 4061.25,4672.13C4061.25,4669.08 4061.96,4666.31 4063.38,4663.82C4064.8,4661.32 4066.72,4659.36 4069.14,4657.94C4071.55,4656.52 4074.2,4655.81 4077.07,4655.81C4078.88,4655.81 4080.64,4656.09 4082.35,4656.63C4084.06,4657.17 4085.61,4657.93 4087,4658.9C4087.27,4659.11 4087.41,4659.35 4087.41,4659.62Z" style="fill:white;fill-rule:nonzero;"/>
                <path d="M4119.61,4680.61C4118.33,4683.09 4116.54,4685.02 4114.24,4686.39C4111.95,4687.77 4109.33,4688.45 4106.4,4688.45C4103.47,4688.45 4100.85,4687.77 4098.56,4686.39C4096.26,4685.02 4094.47,4683.09 4093.18,4680.61C4091.9,4678.13 4091.26,4675.31 4091.26,4672.13C4091.26,4668.96 4091.9,4666.13 4093.18,4663.66C4094.47,4661.18 4096.26,4659.25 4098.56,4657.88C4100.85,4656.5 4103.47,4655.81 4106.4,4655.81C4109.33,4655.81 4111.95,4656.5 4114.24,4657.88C4116.54,4659.25 4118.33,4661.18 4119.61,4663.66C4120.9,4666.13 4121.54,4668.96 4121.54,4672.13C4121.54,4675.31 4120.9,4678.13 4119.61,4680.61ZM4117.96,4664.56C4116.84,4662.36 4115.28,4660.65 4113.27,4659.44C4111.26,4658.23 4108.97,4657.63 4106.4,4657.63C4103.83,4657.63 4101.54,4658.23 4099.53,4659.44C4097.52,4660.65 4095.96,4662.36 4094.84,4664.56C4093.72,4666.77 4093.16,4669.29 4093.16,4672.13C4093.16,4674.97 4093.72,4677.5 4094.84,4679.7C4095.96,4681.91 4097.52,4683.62 4099.53,4684.83C4101.54,4686.04 4103.83,4686.64 4106.4,4686.64C4108.97,4686.64 4111.26,4686.04 4113.27,4684.83C4115.28,4683.62 4116.84,4681.91 4117.96,4679.7C4119.08,4677.5 4119.64,4674.97 4119.64,4672.13C4119.64,4669.29 4119.08,4666.77 4117.96,4664.56Z" style="fill:white;fill-rule:nonzero;"/>
                <path d="M4146.34,4658.67C4147.91,4660.27 4148.7,4662.36 4148.7,4664.93C4148.7,4666.62 4148.34,4668.15 4147.63,4669.53C4146.92,4670.9 4145.92,4671.98 4144.62,4672.74C4143.32,4673.52 4141.82,4673.9 4140.13,4673.9L4130.24,4673.9L4130.24,4687.09C4130.24,4687.34 4130.15,4687.55 4129.95,4687.73C4129.75,4687.91 4129.53,4688 4129.29,4688C4129.02,4688 4128.8,4687.91 4128.61,4687.73C4128.43,4687.55 4128.34,4687.34 4128.34,4687.09L4128.34,4657.17C4128.34,4656.93 4128.43,4656.72 4128.61,4656.54C4128.8,4656.36 4129.01,4656.27 4129.25,4656.27L4140.13,4656.27C4142.7,4656.27 4144.77,4657.07 4146.34,4658.67ZM4144.98,4670.07C4146.19,4668.73 4146.79,4667.01 4146.79,4664.93C4146.79,4662.84 4146.19,4661.18 4145,4659.94C4143.81,4658.7 4142.18,4658.08 4140.13,4658.08L4130.24,4658.08L4130.24,4672.09L4140.13,4672.09C4142.15,4672.09 4143.77,4671.42 4144.98,4670.07Z" style="fill:white;fill-rule:nonzero;"/>
                <path d="M4175.9,4656.52C4176.08,4656.68 4176.17,4656.89 4176.17,4657.13C4176.17,4657.4 4176.09,4657.61 4175.92,4657.76C4175.75,4657.91 4175.53,4657.99 4175.26,4657.99L4165.15,4657.99L4165.15,4687.09C4165.15,4687.34 4165.06,4687.55 4164.88,4687.73C4164.7,4687.91 4164.49,4688 4164.24,4688C4163.97,4688 4163.75,4687.91 4163.59,4687.73C4163.42,4687.55 4163.34,4687.34 4163.34,4687.09L4163.34,4657.99L4153.23,4657.99C4152.99,4657.99 4152.78,4657.91 4152.6,4657.74C4152.41,4657.57 4152.32,4657.37 4152.32,4657.13C4152.32,4656.89 4152.41,4656.68 4152.6,4656.52C4152.78,4656.35 4152.99,4656.27 4153.23,4656.27L4175.26,4656.27C4175.5,4656.27 4175.72,4656.35 4175.9,4656.52Z" style="fill:white;fill-rule:nonzero;"/>
                <path d="M4183.88,4687.73C4183.69,4687.91 4183.48,4688 4183.24,4688C4182.94,4688 4182.7,4687.91 4182.54,4687.73C4182.37,4687.55 4182.29,4687.32 4182.29,4687.05L4182.29,4657.22C4182.29,4656.95 4182.38,4656.72 4182.56,4656.54C4182.74,4656.36 4182.97,4656.27 4183.24,4656.27C4183.51,4656.27 4183.74,4656.36 4183.92,4656.54C4184.1,4656.72 4184.19,4656.95 4184.19,4657.22L4184.19,4687.05C4184.16,4687.32 4184.06,4687.55 4183.88,4687.73Z" style="fill:white;fill-rule:nonzero;"/>
                <path d="M4213.84,4686.69C4213.99,4686.9 4214.07,4687.08 4214.07,4687.23C4214.07,4687.5 4213.98,4687.72 4213.8,4687.89C4213.61,4688.05 4213.39,4688.14 4213.11,4688.14C4212.78,4688.14 4212.54,4688.02 4212.39,4687.77L4202.01,4673.63L4191.67,4687.77C4191.52,4688.02 4191.29,4688.14 4190.99,4688.14C4190.72,4688.14 4190.51,4688.05 4190.36,4687.89C4190.21,4687.72 4190.13,4687.55 4190.13,4687.36C4190.13,4687.21 4190.21,4687.02 4190.36,4686.78L4201.01,4672.22L4190.27,4657.58C4190.15,4657.43 4190.09,4657.25 4190.09,4657.04C4190.09,4656.77 4190.18,4656.55 4190.36,4656.38C4190.54,4656.21 4190.75,4656.13 4190.99,4656.13C4191.36,4656.13 4191.61,4656.25 4191.76,4656.49L4202.14,4670.68L4212.48,4656.45C4212.66,4656.21 4212.89,4656.09 4213.16,4656.09C4213.43,4656.09 4213.65,4656.15 4213.82,4656.29C4213.98,4656.43 4214.07,4656.6 4214.07,4656.81C4214.07,4657.02 4213.99,4657.23 4213.84,4657.44L4203.19,4672.13L4213.84,4686.69Z" style="fill:white;fill-rule:nonzero;"/>
            </g>
            <g transform="matrix(4.25434,0,0,4.25434,2568.94,4174.33)">
                <g transform="matrix(-0.566818,-0.823843,-0.823843,0.566818,298.566,219.036)">
                    <rect x="-11.954" y="6.285" width="32.18" height="32.18" style="fill:none;stroke:white;stroke-width:1.28px;"/>
                </g>
                <g transform="matrix(1,0,0,1,265.252,198.934)">
                    <path d="M0,58.75L-17.737,41.542L-17.737,17.207L0,0L25.084,0L42.82,17.207L42.82,41.542L25.084,58.75L0,58.75Z" style="fill:none;stroke:white;stroke-width:1.28px;"/>
                </g>
                <g transform="matrix(1,0,0,1,308.072,240.477)">
                    <path d="M0,-24.336L-7.909,-8.03L-17.736,-41.543L-26.149,-34.541L-42.82,-41.543L-26.149,-34.541L-60.557,-24.336L-52.66,-16.301L-60.557,-0.001L-52.66,-16.301L-42.82,17.207L-34.42,10.21L-17.736,17.207L-34.42,10.21L0,-0.001L-7.909,-8.03" style="fill:none;stroke:white;stroke-width:1.28px;"/>
                </g>
            </g>
        </g>
    </g>
</svg>
