<?xml version="1.0" standalone="no"?>
<!DOCTYPE svg PUBLIC "-//W3C//DTD SVG 20010904//EN"
 "http://www.w3.org/TR/2001/REC-SVG-20010904/DTD/svg10.dtd">
<svg version="1.0" xmlns="http://www.w3.org/2000/svg"
 width="511.000000pt" height="511.000000pt" viewBox="0 0 511.000000 511.000000"
 preserveAspectRatio="xMidYMid meet">
<metadata>
Created by potrace 1.11, written by Peter Selinger 2001-2013
</metadata>
<g transform="translate(0.000000,511.000000) scale(0.100000,-0.100000)"
fill="#000000" stroke="none">
<path d="M1498 5032 c-9 -4 -130 -117 -268 -252 -139 -135 -282 -274 -319
-309 -57 -55 -395 -384 -798 -776 l-113 -111 2 -1032 3 -1033 120 -116 c66
-64 248 -240 404 -392 156 -152 321 -312 366 -356 45 -44 196 -190 335 -325
138 -135 259 -248 268 -252 22 -9 2092 -9 2114 0 9 4 77 65 150 137 74 72 271
263 438 425 167 162 380 370 474 462 94 91 230 222 301 291 l130 125 0 1037 0
1036 -130 126 c-126 122 -605 587 -770 748 -390 380 -579 561 -593 567 -9 4
-485 7 -1057 7 -572 0 -1048 -3 -1057 -7z m1942 -99 c0 -2 -122 -106 -185
-158 -51 -42 -304 -253 -342 -286 l-23 -19 -540 227 c-297 125 -540 230 -540
233 0 3 367 5 815 5 448 0 815 -1 815 -2z m-1306 -265 l600 -252 -59 -19 c-33
-10 -224 -67 -425 -126 -201 -60 -527 -157 -725 -215 -198 -59 -403 -120 -455
-136 -203 -62 -807 -240 -813 -240 -5 0 151 155 339 337 45 43 209 202 365
354 463 451 564 548 569 549 3 0 275 -113 604 -252z m1449 165 c16 -61 86
-303 207 -713 40 -135 76 -258 80 -275 5 -16 26 -91 48 -165 22 -74 73 -245
112 -380 39 -135 99 -337 132 -450 72 -247 88 -302 88 -313 0 -5 -21 22 -47
60 -25 37 -162 237 -303 443 -142 206 -395 575 -563 820 -168 245 -319 465
-337 489 -31 42 -32 44 -14 62 32 31 569 478 575 479 4 0 13 -26 22 -57z m316
-219 c91 -89 198 -193 238 -230 39 -38 205 -200 370 -360 164 -161 340 -332
392 -381 l94 -90 -28 -59 c-15 -32 -80 -165 -143 -294 -63 -129 -134 -275
-157 -325 -126 -265 -246 -508 -249 -504 -4 4 -120 393 -212 714 -30 105 -66
226 -79 270 -14 44 -74 251 -135 460 -62 209 -143 488 -182 620 -39 132 -74
254 -78 270 -5 17 -13 45 -19 63 -13 43 -21 49 188 -154z m-1000 -302 c5 -9
78 -117 163 -239 141 -205 287 -417 478 -698 42 -60 150 -218 241 -350 91
-132 204 -296 251 -365 47 -69 133 -194 191 -279 l107 -154 -95 -66 c-96 -67
-198 -137 -995 -686 -245 -169 -570 -393 -723 -498 -153 -106 -282 -192 -287
-192 -8 0 -264 368 -830 1195 -102 148 -240 350 -307 448 -248 360 -274 398
-293 427 l-19 30 486 335 c268 184 586 403 707 487 122 83 235 161 251 173 99
72 651 449 657 450 4 0 12 -8 17 -18z m-324 -61 c-6 -5 -113 -80 -240 -167
-252 -173 -985 -678 -1270 -875 -99 -68 -219 -151 -268 -184 l-87 -59 -86 90
c-48 49 -172 176 -277 282 -104 105 -188 195 -185 198 5 4 496 154 563 171 18
5 77 22 345 103 52 15 127 37 165 49 244 72 860 255 1080 321 302 91 271 82
260 71z m-2042 -1254 l106 -108 -63 -132 c-103 -215 -187 -388 -301 -622 -59
-121 -120 -248 -136 -282 -15 -35 -29 -63 -31 -63 -3 0 -2 1583 1 1621 1 15
87 -68 424 -414z m4471 -494 c-1 -450 -2 -820 -3 -823 -1 -3 -5 0 -9 7 -4 7
-120 126 -258 265 -137 139 -253 258 -257 264 -6 11 29 87 265 574 39 80 113
232 164 338 51 105 94 192 96 192 2 0 2 -368 2 -817z m-4250 37 c32 -107 68
-231 81 -275 14 -44 68 -228 121 -410 114 -391 205 -701 279 -955 165 -561
173 -591 157 -578 -9 7 -46 42 -83 78 -36 36 -198 193 -360 350 -161 157 -370
360 -463 452 -94 91 -215 208 -269 260 l-98 94 79 165 c44 90 146 301 227 469
81 168 174 361 207 429 32 68 60 122 62 120 2 -2 29 -92 60 -199z m603 -685
c274 -399 556 -810 627 -913 71 -103 135 -197 143 -209 14 -21 8 -27 -164
-170 -98 -81 -183 -152 -189 -158 -15 -13 -47 -40 -114 -95 -30 -25 -57 -47
-60 -50 -3 -3 -15 -13 -27 -24 -22 -18 -23 -18 -33 9 -6 15 -35 111 -65 214
-29 102 -127 434 -216 736 -89 303 -163 559 -166 570 -3 11 -15 54 -28 95 -13
41 -63 210 -110 375 -48 164 -91 310 -96 322 -5 13 -7 23 -5 23 3 0 229 -326
503 -725z m3104 223 c33 -35 158 -161 276 -280 119 -120 214 -220 211 -224 -4
-3 -163 -52 -355 -109 -1173 -348 -1645 -488 -1698 -504 -33 -10 -91 -28 -130
-39 -38 -12 -107 -32 -152 -46 -46 -13 -83 -23 -83 -22 0 2 124 88 275 192
152 104 340 234 420 289 79 55 304 210 500 345 195 135 424 293 508 352 83 58
156 106 160 107 4 1 35 -27 68 -61z m389 -658 c0 -5 -6 -13 -14 -17 -8 -4
-155 -145 -327 -313 -537 -524 -642 -625 -719 -699 -41 -40 -105 -102 -142
-138 l-66 -66 -579 243 c-553 232 -637 269 -620 270 4 0 173 49 375 109 1156
343 1747 519 1902 566 198 60 190 58 190 45z m-2025 -1035 c259 -108 473 -200
477 -203 4 -4 -362 -7 -812 -7 l-820 0 28 26 c15 15 138 119 274 232 l248 206
67 -28 c38 -16 280 -117 538 -226z"/>
</g>
</svg>
